<svg width="60" height="24" fill="none" xmlns="http://www.w3.org/2000/svg"><path fill-rule="evenodd" clip-rule="evenodd" d="M37.639 18.069l.52-.114c.464-.091.77-.265.77-.852V7.348l-1.29-.72v-.53L41.026 5h.25v12.103c0 .606.347.795.808.89l.443.076v.739h-4.889v-.74zm3.849-4.186l2.27-2.196c.77-.758.675-1.287-.153-1.44l-.616-.113v-.738h4.754v.738l-.497.097a2.617 2.617 0 00-1.443.759l-2.16 2.078 4.292 5.115-.172.682h-2.348l-3.927-4.982zM29.767 5.397c-3.6 0-6.776 2.728-6.776 6.99 0 3.94 2.849 6.61 6.526 6.61 3.791 0 6.812-2.595 6.812-6.819 0-4.053-2.828-6.78-6.562-6.78zm-.212 1.213c2.405 0 3.964 2.083 3.964 5.776 0 3.6-1.522 5.399-3.734 5.399-2.328 0-3.984-2.103-3.984-5.758 0-3.694 1.636-5.417 3.754-5.417zM13.947 9.957v1.799A6.101 6.101 0 009.676 13.5a5.922 5.922 0 00-1.701 3.3h5.972v1.8H0v-1.8h6.005a5.952 5.952 0 00-1.711-3.322A6.133 6.133 0 000 11.725V9.922a8.007 8.007 0 014.082 1.12 7.839 7.839 0 012.91 3.032 7.806 7.806 0 012.897-3.008 7.974 7.974 0 014.058-1.11zm36.028 1.425v4.528c0 2.121 1.445 3.087 2.85 3.087 1.458 0 2.729-.872 3.44-1.894V19h.443L60 18.375v-.703l-.65-.057c-.598-.076-.848-.304-.848-.777V9.133h-.48l-3.331.604v.683l.635.091c.577.057.808.303.808.872v5.29a3.96 3.96 0 01-2.04.586c-.882 0-1.767-.34-1.767-1.932V9.133h-.465l-3.272.604v.683l.597.091c.558.076.788.303.788.872z" fill="#000"/><path d="M6.974 9.426c1.231 0 2.23-.982 2.23-2.194s-.999-2.194-2.23-2.194c-1.232 0-2.23.982-2.23 2.194s.998 2.194 2.23 2.194z" fill="#000"/></svg>