<svg width="20" height="17" fill="none" xmlns="http://www.w3.org/2000/svg"><path fill-rule="evenodd" clip-rule="evenodd" d="M20 2.223a8.015 8.015 0 01-2.356.662A4.198 4.198 0 0019.448.558a8.08 8.08 0 01-2.607 1.02A4.047 4.047 0 0013.846.25c-2.264 0-4.101 1.884-4.101 4.207 0 .33.035.65.105.959-3.41-.176-6.433-1.85-8.458-4.398a4.284 4.284 0 00-.555 2.118c0 1.459.724 2.747 1.825 3.501a4.028 4.028 0 01-1.859-.524v.051c0 2.04 1.415 3.74 3.293 4.126a3.913 3.913 0 01-1.081.148c-.265 0-.523-.026-.773-.075.523 1.671 2.037 2.888 3.833 2.92A8.102 8.102 0 010 15.029a11.425 11.425 0 006.29 1.889c7.548 0 11.674-6.41 11.674-11.971 0-.183-.003-.366-.01-.545A8.424 8.424 0 0020 2.223z" fill="#00D1FF"/></svg>